<svg xmlns="http://www.w3.org/2000/svg" xmlns:svg="http://www.w3.org/2000/svg" width="171" height="65" viewBox="0 0 171 65" preserveAspectRatio="xMinYMin meet" class="mxd-logo">
  <g id="svg_28"><path d="m87.838882 50.108223l7.245857 0l0 7.049599c-2.61792 1.1 -5.1 1.5 -7.5 1.514359c-6.336693 0 -9.2 -3.8 -9.2 -8.218006c0 -3.9 2.4 -8.2 8.9 -8.217587c4.390862 0 7.2 1.3 7.7 4.454956l-2.379166 0c-0.540176 -2 -2.6 -2.7 -5.1 -2.681679c-4.39035 0 -6.7 2.9 -6.7 6.422974c0 3.4 2.4 6.5 6.9 6.465725c1.709442 0 3.7 -0.4 5.2 -0.993996l0 -4.02383l-4.995392 0l0 -1.772514l-0.000847 0z" id="svg_1"></path><path d="m100.062347 58.260948l-2.247925 0l0 -15.613892l7.676811 0c4.82267 0 5.9 1.6 5.9 4.131523c0 1.9 -1.4 3.3 -3.6 3.632835l0 0.043182c2.097221 0.3 2.7 1.1 3.1 3.741634c0.259941 1.7 0.5 3 0.9 4.06506l-2.377472 0c-0.411484 -1.1 -0.6 -3.3 -1.1 -5.038406c-0.259941 -1.1 -1 -1.9 -3.9 -1.924828l-4.347679 0l0 6.962891zm0 -8.736511l5.126633 0c2.378296 0 3.8 -0.6 3.8 -2.552219c0 -1.9 -1 -2.6 -3.8 -2.551121l-5.1698 0l0 5.10334z" id="svg_2"></path><path d="m122.148743 42.236248c6.552429 0 8.8 4.5 8.8 8.217926s-2.2276 8.2 -8.8 8.218342s-8.780876 -4.5 -8.8 -8.218342s2.227608 -8.2 8.8 -8.217926m0 14.662315c3.784637 0 6.4 -2.6 6.4 -6.444389c0 -3.8 -2.6 -6.4 -6.4 -6.444649c-3.784653 0 -6.4 2.6 -6.4 6.444649c-0.000854 3.8 2.6 6.4 6.4 6.4" id="svg_3"></path><path d="m145.57457 42.646717l2.248779 0l0 9.321144c0 4.5 -3 6.7 -7.3 6.704319s-7.267014 -2.2 -7.3 -6.704319l0 -9.321144l2.250458 0l0 9.42952c0 3 1.8 4.8 5 4.822327c3.222443 0 5 -1.8 5 -4.822327l0 -9.42952z" id="svg_4"></path><path d="m151.18042 42.646717l7.180664 0c4.69313 0 6.3 1.4 6.3 4.217464c0 2.7 -1.8 4.5 -5.6 4.541145l-5.622772 0l0 6.855621l-2.249619 0l0 -15.614231l-0.000854 0zm7.310211 6.985416c2.595062 0 3.8 -0.9 3.8 -2.767612c0 -1.7 -1 -2.4 -3.9 -2.443424l-4.887878 0l0 5.211037l5.060608 0z" id="svg_5"></path><rect x="38.4" y="21.1" width="4.1" height="4.2" id="svg_6"></rect> <rect x="30.1" y="0.3" width="4.2" height="4.2" id="svg_7"></rect><rect x="26" y="8.7" width="4.2" height="4.2" id="svg_8"></rect><rect x="17.7" y="4.5" width="8.3" height="4.2" id="svg_9"></rect><rect x="34.3" y="12.8" width="4.2" height="4.2" id="svg_10"></rect><rect x="30.1" y="17" width="4.2" height="4.2" id="svg_11"></rect> <rect x="17.7" y="17" width="4.2" height="4.2" id="svg_12"></rect><rect x="0.5" y="21.1" width="4.2" height="4.2" id="svg_13"></rect><rect x="4.9" y="4.4" width="4.2" height="4.2" id="svg_14"></rect> <rect x="21.9" y="21.1" width="4.2" height="4.2" id="svg_15"></rect><rect x="9.5" y="12.8" width="8.2" height="4.2" id="svg_16"></rect> <rect x="30.1" y="25.3" width="8.3" height="4.2" id="svg_17"></rect><rect x="25.9" y="29.4" width="4.2" height="4.2" id="svg_18"></rect> <rect x="17.8" y="29.5" width="4.2" height="4.2" id="svg_19"></rect><polygon points="42.5,33.6 38.4,33.6 38.4,37.8 42.5,37.8" id="svg_20"></polygon> <path d="m147.817429 0.299531l-30.666626 0l-11.032181 11.033967l-11.034737 -11.033967l-18.340523 -0.001126l-10.806129 15.792399l-10.875641 -15.792399l-16.660297 0l0 4.226803l8.300133 -0.016138l0 4.158501l4.140835 0l0 4.158195l-4.158104 0l0 -4.158195l-8.282864 0l0 4.158195l4.141598 0l0 8.316647l4.158535 0l0 4.158875l-4.158535 0l0 4.141262l8.29937 0l0 4.158449l-4.134823 0.006008l0 4.171661l8.61451 0.001102l0 -17.955887l10.58218 15.482491l10.581512 -15.482491l0 17.955887l18.598244 0l11.034737 -11.033209l11.032181 11.033209l30.669159 -0.008976c10.232941 0 18.6 -8.3 18.6 -18.556686l0 -0.393196c0 -10.2 -8.3 -18.5 -18.6 -18.521381m-60.43914 29.774129l0 -22.067598l11.03389 11.03363l-11.03389 11.033968zm37.461189 -0.016933l-11.016098 -11.017035l11.016098 -11.015596l0 22.032631zm30.124741 -10.896637c0 5 -4.1 9.1 -9.1 9.146305l-9.554749 0.007874l0 -18.552539l9.555603 0.003387c5.042801 0 9.1 4.1 9.1 9.147319l0 0.247654z" id="svg_21"></path><rect x="78.1" y="62.7" width="86.5" height="2" id="svg_22"></rect><polygon points="167.6,0.2 167.6,0.5 166.8,0.5 166.8,2.8 166.4,2.8 166.4,0.5 165.6,0.5 165.6,0.2" id="svg_23"></polygon><path d="m167.905655 0.25l0.486008 0l0.718826 2.114718l0.713745 -2.114718l0.481766 0l0 2.501184l-0.323441 0l0 -1.476468c0 -0.1 0 -0.1 0 -0.253275c0.003418 -0.1 0 -0.2 0 -0.38009l-0.713745 2.109833l-0.336975 0l-0.72052 -2.109833l0 0.07692c0 0.1 0 0.2 0 0.279911c0.004242 0.1 0 0.2 0 0.276533l0 1.476468l-0.323441 0l0 -2.501184l-0.000854 0z" id="svg_24"></path></g>
</svg>